<?xml version="1.0" standalone="no"?>
<svg viewBox="0 0 200 200" xmlns="http://www.w3.org/2000/svg">
  <path fill="#08BDBA" d="M10.7,-13.5C15.6,-15.6,22.8,-16.4,22.5,-14C22.2,-11.5,14.4,-5.7,18.4,2.3C22.4,10.4,38.1,20.7,37.5,21.6C36.9,22.5,19.9,13.8,11,20.2C2,26.6,1,48,-0.7,49.2C-2.3,50.3,-4.7,31.2,-5.6,20.2C-6.5,9.1,-6,6.2,-5.6,4.2C-5.1,2.1,-4.6,1.1,-3.9,0.4C-3.3,-0.3,-2.4,-0.6,-3.7,-4C-5,-7.4,-8.4,-13.9,-8.1,-14.5C-7.8,-15.1,-3.9,-9.8,-0.5,-8.9C2.8,-7.9,5.7,-11.4,10.7,-13.5Z" transform="translate(100 100)" />
</svg>
